<svg width="400" height="200" viewBox="0 0 400 200" xmlns="http://www.w3.org/2000/svg">
  <defs>
    <linearGradient id="project1Gradient" x1="0%" y1="0%" x2="100%" y2="100%">
      <stop offset="0%" style="stop-color:#667eea;stop-opacity:1" />
      <stop offset="100%" style="stop-color:#764ba2;stop-opacity:1" />
    </linearGradient>
  </defs>
  <rect width="400" height="200" fill="url(#project1Gradient)"/>
  <rect x="20" y="20" width="360" height="30" fill="white" opacity="0.9" rx="5"/>
  <rect x="20" y="60" width="100" height="120" fill="white" opacity="0.8" rx="5"/>
  <rect x="140" y="60" width="100" height="120" fill="white" opacity="0.8" rx="5"/>
  <rect x="260" y="60" width="100" height="120" fill="white" opacity="0.8" rx="5"/>
  <circle cx="70" cy="90" r="15" fill="#667eea"/>
  <rect x="60" y="115" width="20" height="10" fill="#667eea" rx="2"/>
  <rect x="60" y="130" width="30" height="8" fill="#667eea" rx="2"/>
  <circle cx="190" cy="90" r="15" fill="#667eea"/>
  <rect x="180" y="115" width="20" height="10" fill="#667eea" rx="2"/>
  <rect x="180" y="130" width="30" height="8" fill="#667eea" rx="2"/>
  <circle cx="310" cy="90" r="15" fill="#667eea"/>
  <rect x="300" y="115" width="20" height="10" fill="#667eea" rx="2"/>
  <rect x="300" y="130" width="30" height="8" fill="#667eea" rx="2"/>
  <text x="200" y="190" text-anchor="middle" fill="white" font-family="Arial, sans-serif" font-size="14" font-weight="bold">E-Commerce Platform</text>
</svg> 