<svg width="400" height="200" viewBox="0 0 400 200" xmlns="http://www.w3.org/2000/svg">
  <defs>
    <linearGradient id="project4Gradient" x1="0%" y1="0%" x2="100%" y2="100%">
      <stop offset="0%" style="stop-color:#2196F3;stop-opacity:1" />
      <stop offset="100%" style="stop-color:#1976D2;stop-opacity:1" />
    </linearGradient>
  </defs>
  <rect width="400" height="200" fill="url(#project4Gradient)"/>
  <rect x="20" y="20" width="360" height="160" fill="white" opacity="0.9" rx="10"/>
  <rect x="40" y="40" width="320" height="20" fill="#2196F3" opacity="0.3" rx="3"/>
  <rect x="40" y="70" width="320" height="15" fill="#2196F3" opacity="0.2" rx="3"/>
  <rect x="40" y="95" width="280" height="15" fill="#2196F3" opacity="0.2" rx="3"/>
  <rect x="40" y="120" width="300" height="15" fill="#2196F3" opacity="0.2" rx="3"/>
  <rect x="40" y="145" width="250" height="15" fill="#2196F3" opacity="0.2" rx="3"/>
  <rect x="40" y="170" width="200" height="15" fill="#2196F3" opacity="0.2" rx="3"/>
  <circle cx="60" cy="50" r="8" fill="#2196F3"/>
  <circle cx="60" cy="77" r="6" fill="#2196F3"/>
  <circle cx="60" cy="102" r="6" fill="#2196F3"/>
  <circle cx="60" cy="127" r="6" fill="#2196F3"/>
  <circle cx="60" cy="152" r="6" fill="#2196F3"/>
  <circle cx="60" cy="177" r="6" fill="#2196F3"/>
  <text x="200" y="190" text-anchor="middle" fill="white" font-family="Arial, sans-serif" font-size="14" font-weight="bold">Blog Platform</text>
</svg> 