<svg width="400" height="200" viewBox="0 0 400 200" xmlns="http://www.w3.org/2000/svg">
  <defs>
    <linearGradient id="project3Gradient" x1="0%" y1="0%" x2="100%" y2="100%">
      <stop offset="0%" style="stop-color:#ffd700;stop-opacity:1" />
      <stop offset="100%" style="stop-color:#ffed4e;stop-opacity:1" />
    </linearGradient>
  </defs>
  <rect width="400" height="200" fill="url(#project3Gradient)"/>
  <rect x="20" y="20" width="360" height="30" fill="white" opacity="0.9" rx="5"/>
  <rect x="20" y="60" width="200" height="120" fill="white" opacity="0.8" rx="5"/>
  <rect x="240" y="60" width="140" height="120" fill="white" opacity="0.8" rx="5"/>
  <rect x="40" y="80" width="160" height="15" fill="#ffd700" rx="3"/>
  <rect x="40" y="105" width="120" height="15" fill="#ffd700" rx="3"/>
  <rect x="40" y="130" width="140" height="15" fill="#ffd700" rx="3"/>
  <rect x="40" y="155" width="100" height="15" fill="#ffd700" rx="3"/>
  <circle cx="260" cy="90" r="25" fill="#ffd700"/>
  <rect x="250" y="125" width="120" height="10" fill="#ffd700" rx="2"/>
  <rect x="250" y="140" width="100" height="10" fill="#ffd700" rx="2"/>
  <rect x="250" y="155" width="80" height="10" fill="#ffd700" rx="2"/>
  <text x="200" y="190" text-anchor="middle" fill="white" font-family="Arial, sans-serif" font-size="14" font-weight="bold">Portfolio Website</text>
</svg> 